<mxfile host="65bd71144e">
    <diagram id="86PfZqOsW2icAPBCHRVc" name="Page-1">
        <mxGraphModel dx="2055" dy="1757" grid="1" gridSize="10" guides="1" tooltips="1" connect="1" arrows="1" fold="1" page="1" pageScale="1" pageWidth="850" pageHeight="1100" math="0" shadow="0">
            <root>
                <mxCell id="0"/>
                <mxCell id="1" parent="0"/>
                <mxCell id="2" value="Drone" style="swimlane;fontStyle=1;align=center;verticalAlign=top;childLayout=stackLayout;horizontal=1;startSize=26;horizontalStack=0;resizeParent=1;resizeParentMax=0;resizeLast=0;collapsible=1;marginBottom=0;" parent="1" vertex="1">
                    <mxGeometry x="-362.5" y="126" width="245" height="198" as="geometry">
                        <mxRectangle x="50" y="120" width="80" height="30" as="alternateBounds"/>
                    </mxGeometry>
                </mxCell>
                <mxCell id="3" value="- state: DroneStates" style="text;strokeColor=none;fillColor=none;align=left;verticalAlign=top;spacingLeft=4;spacingRight=4;overflow=hidden;rotatable=0;points=[[0,0.5],[1,0.5]];portConstraint=eastwest;" parent="2" vertex="1">
                    <mxGeometry y="26" width="245" height="24" as="geometry"/>
                </mxCell>
                <mxCell id="29" value="- velocity: const float" style="text;strokeColor=none;fillColor=none;align=left;verticalAlign=top;spacingLeft=4;spacingRight=4;overflow=hidden;rotatable=0;points=[[0,0.5],[1,0.5]];portConstraint=eastwest;" parent="2" vertex="1">
                    <mxGeometry y="50" width="245" height="26" as="geometry"/>
                </mxCell>
                <mxCell id="4" value="" style="line;strokeWidth=1;fillColor=none;align=left;verticalAlign=middle;spacingTop=-1;spacingLeft=3;spacingRight=3;rotatable=0;labelPosition=right;points=[];portConstraint=eastwest;strokeColor=inherit;" parent="2" vertex="1">
                    <mxGeometry y="76" width="245" height="18" as="geometry"/>
                </mxCell>
                <mxCell id="131" value="+ Done( id_,velocity_)" style="text;strokeColor=none;fillColor=none;align=left;verticalAlign=top;spacingLeft=4;spacingRight=4;overflow=hidden;rotatable=0;points=[[0,0.5],[1,0.5]];portConstraint=eastwest;" parent="2" vertex="1">
                    <mxGeometry y="94" width="245" height="26" as="geometry"/>
                </mxCell>
                <mxCell id="132" value="+ get_state(): DroneStates" style="text;strokeColor=none;fillColor=none;align=left;verticalAlign=top;spacingLeft=4;spacingRight=4;overflow=hidden;rotatable=0;points=[[0,0.5],[1,0.5]];portConstraint=eastwest;" parent="2" vertex="1">
                    <mxGeometry y="120" width="245" height="26" as="geometry"/>
                </mxCell>
                <mxCell id="134" value="+ get_velocity(): float" style="text;strokeColor=none;fillColor=none;align=left;verticalAlign=top;spacingLeft=4;spacingRight=4;overflow=hidden;rotatable=0;points=[[0,0.5],[1,0.5]];portConstraint=eastwest;" parent="2" vertex="1">
                    <mxGeometry y="146" width="245" height="26" as="geometry"/>
                </mxCell>
                <mxCell id="133" value="+ send(PackageSation, Package):  void" style="text;strokeColor=none;fillColor=none;align=left;verticalAlign=top;spacingLeft=4;spacingRight=4;overflow=hidden;rotatable=0;points=[[0,0.5],[1,0.5]];portConstraint=eastwest;" parent="2" vertex="1">
                    <mxGeometry y="172" width="245" height="26" as="geometry"/>
                </mxCell>
                <mxCell id="233" style="edgeStyle=none;html=1;endArrow=none;endFill=0;startArrow=none;" parent="1" source="237" target="230" edge="1">
                    <mxGeometry relative="1" as="geometry">
                        <mxPoint x="265" y="-32" as="sourcePoint"/>
                        <Array as="points"/>
                    </mxGeometry>
                </mxCell>
                <mxCell id="239" style="edgeStyle=none;html=1;entryX=0.633;entryY=0.5;entryDx=0;entryDy=0;entryPerimeter=0;endArrow=none;endFill=0;" parent="1" source="6" target="237" edge="1">
                    <mxGeometry relative="1" as="geometry"/>
                </mxCell>
                <mxCell id="6" value="PackageStation" style="swimlane;fontStyle=0;align=center;verticalAlign=top;childLayout=stackLayout;horizontal=1;startSize=26;horizontalStack=0;resizeParent=1;resizeParentMax=0;resizeLast=0;collapsible=1;marginBottom=0;" parent="1" vertex="1">
                    <mxGeometry x="140" y="118" width="250" height="234" as="geometry"/>
                </mxCell>
                <mxCell id="32" value="- lockers: Locker [ ]" style="text;strokeColor=none;fillColor=none;align=left;verticalAlign=top;spacingLeft=4;spacingRight=4;overflow=hidden;rotatable=0;points=[[0,0.5],[1,0.5]];portConstraint=eastwest;" parent="6" vertex="1">
                    <mxGeometry y="26" width="250" height="26" as="geometry"/>
                </mxCell>
                <mxCell id="87" value="+ Position: position" style="text;strokeColor=none;fillColor=none;align=left;verticalAlign=top;spacingLeft=4;spacingRight=4;overflow=hidden;rotatable=0;points=[[0,0.5],[1,0.5]];portConstraint=eastwest;" parent="6" vertex="1">
                    <mxGeometry y="52" width="250" height="26" as="geometry"/>
                </mxCell>
                <mxCell id="8" value="" style="line;strokeWidth=1;fillColor=none;align=left;verticalAlign=middle;spacingTop=-1;spacingLeft=3;spacingRight=3;rotatable=0;labelPosition=right;points=[];portConstraint=eastwest;strokeColor=inherit;" parent="6" vertex="1">
                    <mxGeometry y="78" width="250" height="26" as="geometry"/>
                </mxCell>
                <mxCell id="9" value="+ PackageStation(id_, Position)" style="text;strokeColor=none;fillColor=none;align=left;verticalAlign=top;spacingLeft=4;spacingRight=4;overflow=hidden;rotatable=0;points=[[0,0.5],[1,0.5]];portConstraint=eastwest;" parent="6" vertex="1">
                    <mxGeometry y="104" width="250" height="26" as="geometry"/>
                </mxCell>
                <mxCell id="136" value="+ get_num_of_lockers(): uint" style="text;strokeColor=none;fillColor=none;align=left;verticalAlign=top;spacingLeft=4;spacingRight=4;overflow=hidden;rotatable=0;points=[[0,0.5],[1,0.5]];portConstraint=eastwest;" parent="6" vertex="1">
                    <mxGeometry y="130" width="250" height="26" as="geometry"/>
                </mxCell>
                <mxCell id="137" value="+ get_num_of_free_lockers(): uint" style="text;strokeColor=none;fillColor=none;align=left;verticalAlign=top;spacingLeft=4;spacingRight=4;overflow=hidden;rotatable=0;points=[[0,0.5],[1,0.5]];portConstraint=eastwest;" parent="6" vertex="1">
                    <mxGeometry y="156" width="250" height="26" as="geometry"/>
                </mxCell>
                <mxCell id="138" value="+ load_package(locker_id, Package): bool" style="text;strokeColor=none;fillColor=none;align=left;verticalAlign=top;spacingLeft=4;spacingRight=4;overflow=hidden;rotatable=0;points=[[0,0.5],[1,0.5]];portConstraint=eastwest;" parent="6" vertex="1">
                    <mxGeometry y="182" width="250" height="26" as="geometry"/>
                </mxCell>
                <mxCell id="167" value="+ remove_package(locker_id): Package" style="text;strokeColor=none;fillColor=none;align=left;verticalAlign=top;spacingLeft=4;spacingRight=4;overflow=hidden;rotatable=0;points=[[0,0.5],[1,0.5]];portConstraint=eastwest;" parent="6" vertex="1">
                    <mxGeometry y="208" width="250" height="26" as="geometry"/>
                </mxCell>
                <mxCell id="242" style="edgeStyle=none;html=1;entryX=0.75;entryY=0.633;entryDx=0;entryDy=0;entryPerimeter=0;endArrow=none;endFill=0;exitX=0.5;exitY=0;exitDx=0;exitDy=0;" parent="1" source="10" target="240" edge="1">
                    <mxGeometry relative="1" as="geometry">
                        <Array as="points">
                            <mxPoint x="740" y="-30"/>
                        </Array>
                    </mxGeometry>
                </mxCell>
                <mxCell id="10" value="Package" style="swimlane;fontStyle=1;align=center;verticalAlign=top;childLayout=stackLayout;horizontal=1;startSize=26;horizontalStack=0;resizeParent=1;resizeParentMax=0;resizeLast=0;collapsible=1;marginBottom=0;" parent="1" vertex="1">
                    <mxGeometry x="700" y="38" width="200" height="164" as="geometry"/>
                </mxCell>
                <mxCell id="34" value="- state: PackageStates" style="text;strokeColor=none;fillColor=none;align=left;verticalAlign=top;spacingLeft=4;spacingRight=4;overflow=hidden;rotatable=0;points=[[0,0.5],[1,0.5]];portConstraint=eastwest;" parent="10" vertex="1">
                    <mxGeometry y="26" width="200" height="26" as="geometry"/>
                </mxCell>
                <mxCell id="36" value="- package_station_id: uint" style="text;strokeColor=none;fillColor=none;align=left;verticalAlign=top;spacingLeft=4;spacingRight=4;overflow=hidden;rotatable=0;points=[[0,0.5],[1,0.5]];portConstraint=eastwest;" parent="10" vertex="1">
                    <mxGeometry y="52" width="200" height="26" as="geometry"/>
                </mxCell>
                <mxCell id="12" value="" style="line;strokeWidth=1;fillColor=none;align=left;verticalAlign=middle;spacingTop=-1;spacingLeft=3;spacingRight=3;rotatable=0;labelPosition=right;points=[];portConstraint=eastwest;strokeColor=inherit;" parent="10" vertex="1">
                    <mxGeometry y="78" width="200" height="8" as="geometry"/>
                </mxCell>
                <mxCell id="13" value="+ Package(id_,package_station_id)" style="text;strokeColor=none;fillColor=none;align=left;verticalAlign=top;spacingLeft=4;spacingRight=4;overflow=hidden;rotatable=0;points=[[0,0.5],[1,0.5]];portConstraint=eastwest;" parent="10" vertex="1">
                    <mxGeometry y="86" width="200" height="26" as="geometry"/>
                </mxCell>
                <mxCell id="153" value="+ get_state(): PackageState" style="text;strokeColor=none;fillColor=none;align=left;verticalAlign=top;spacingLeft=4;spacingRight=4;overflow=hidden;rotatable=0;points=[[0,0.5],[1,0.5]];portConstraint=eastwest;" parent="10" vertex="1">
                    <mxGeometry y="112" width="200" height="26" as="geometry"/>
                </mxCell>
                <mxCell id="154" value="+ set_state(PackageState): void " style="text;strokeColor=none;fillColor=none;align=left;verticalAlign=top;spacingLeft=4;spacingRight=4;overflow=hidden;rotatable=0;points=[[0,0.5],[1,0.5]];portConstraint=eastwest;" parent="10" vertex="1">
                    <mxGeometry y="138" width="200" height="26" as="geometry"/>
                </mxCell>
                <mxCell id="234" style="edgeStyle=none;html=1;exitDx=0;exitDy=0;endArrow=none;endFill=0;entryX=0.733;entryY=0.933;entryDx=0;entryDy=0;entryPerimeter=0;startArrow=none;" parent="1" source="240" target="237" edge="1">
                    <mxGeometry relative="1" as="geometry">
                        <mxPoint x="280" y="-20" as="targetPoint"/>
                        <Array as="points"/>
                    </mxGeometry>
                </mxCell>
                <mxCell id="15" value="Locker" style="swimlane;fontStyle=1;align=center;verticalAlign=top;childLayout=stackLayout;horizontal=1;startSize=26;horizontalStack=0;resizeParent=1;resizeParentMax=0;resizeLast=0;collapsible=1;marginBottom=0;" parent="1" vertex="1">
                    <mxGeometry x="470" y="40" width="200" height="246" as="geometry"/>
                </mxCell>
                <mxCell id="40" value="- state: LockerStates" style="text;strokeColor=none;fillColor=none;align=left;verticalAlign=top;spacingLeft=4;spacingRight=4;overflow=hidden;rotatable=0;points=[[0,0.5],[1,0.5]];portConstraint=eastwest;" parent="15" vertex="1">
                    <mxGeometry y="26" width="200" height="26" as="geometry"/>
                </mxCell>
                <mxCell id="41" value="- loading_date: datetime" style="text;strokeColor=none;fillColor=none;align=left;verticalAlign=top;spacingLeft=4;spacingRight=4;overflow=hidden;rotatable=0;points=[[0,0.5],[1,0.5]];portConstraint=eastwest;" parent="15" vertex="1">
                    <mxGeometry y="52" width="200" height="26" as="geometry"/>
                </mxCell>
                <mxCell id="42" value="- expiry_date: datetime" style="text;strokeColor=none;fillColor=none;align=left;verticalAlign=top;spacingLeft=4;spacingRight=4;overflow=hidden;rotatable=0;points=[[0,0.5],[1,0.5]];portConstraint=eastwest;" parent="15" vertex="1">
                    <mxGeometry y="78" width="200" height="26" as="geometry"/>
                </mxCell>
                <mxCell id="171" value="- package: Package" style="text;strokeColor=none;fillColor=none;align=left;verticalAlign=top;spacingLeft=4;spacingRight=4;overflow=hidden;rotatable=0;points=[[0,0.5],[1,0.5]];portConstraint=eastwest;" parent="15" vertex="1">
                    <mxGeometry y="104" width="200" height="26" as="geometry"/>
                </mxCell>
                <mxCell id="17" value="" style="line;strokeWidth=1;fillColor=none;align=left;verticalAlign=middle;spacingTop=-1;spacingLeft=3;spacingRight=3;rotatable=0;labelPosition=right;points=[];portConstraint=eastwest;strokeColor=inherit;" parent="15" vertex="1">
                    <mxGeometry y="130" width="200" height="8" as="geometry"/>
                </mxCell>
                <mxCell id="18" value="+ Locker(id_)" style="text;strokeColor=none;fillColor=none;align=left;verticalAlign=top;spacingLeft=4;spacingRight=4;overflow=hidden;rotatable=0;points=[[0,0.5],[1,0.5]];portConstraint=eastwest;" parent="15" vertex="1">
                    <mxGeometry y="138" width="200" height="26" as="geometry"/>
                </mxCell>
                <mxCell id="148" value="+ get_state(): Locker_states" style="text;strokeColor=none;fillColor=none;align=left;verticalAlign=top;spacingLeft=4;spacingRight=4;overflow=hidden;rotatable=0;points=[[0,0.5],[1,0.5]];portConstraint=eastwest;" parent="15" vertex="1">
                    <mxGeometry y="164" width="200" height="30" as="geometry"/>
                </mxCell>
                <mxCell id="172" value="+ load_package(Package): bool" style="text;strokeColor=none;fillColor=none;align=left;verticalAlign=top;spacingLeft=4;spacingRight=4;overflow=hidden;rotatable=0;points=[[0,0.5],[1,0.5]];portConstraint=eastwest;" parent="15" vertex="1">
                    <mxGeometry y="194" width="200" height="26" as="geometry"/>
                </mxCell>
                <mxCell id="146" value="+ remove_package(Package): void" style="text;strokeColor=none;fillColor=none;align=left;verticalAlign=top;spacingLeft=4;spacingRight=4;overflow=hidden;rotatable=0;points=[[0,0.5],[1,0.5]];portConstraint=eastwest;" parent="15" vertex="1">
                    <mxGeometry y="220" width="200" height="26" as="geometry"/>
                </mxCell>
                <mxCell id="23" value="SoritngOffice" style="swimlane;fontStyle=1;align=center;verticalAlign=top;childLayout=stackLayout;horizontal=1;startSize=26;horizontalStack=0;resizeParent=1;resizeParentMax=0;resizeLast=0;collapsible=1;marginBottom=0;" parent="1" vertex="1">
                    <mxGeometry x="69.06" y="581" width="411.87" height="346" as="geometry"/>
                </mxCell>
                <mxCell id="24" value="- drones: Drone [ ] " style="text;strokeColor=none;fillColor=none;align=left;verticalAlign=top;spacingLeft=4;spacingRight=4;overflow=hidden;rotatable=0;points=[[0,0.5],[1,0.5]];portConstraint=eastwest;" parent="23" vertex="1">
                    <mxGeometry y="26" width="411.87" height="26" as="geometry"/>
                </mxCell>
                <mxCell id="43" value="- packages_to_send: Package [ ] " style="text;strokeColor=none;fillColor=none;align=left;verticalAlign=top;spacingLeft=4;spacingRight=4;overflow=hidden;rotatable=0;points=[[0,0.5],[1,0.5]];portConstraint=eastwest;" parent="23" vertex="1">
                    <mxGeometry y="52" width="411.87" height="26" as="geometry"/>
                </mxCell>
                <mxCell id="44" value="- undelivered_packages: Package [ ] " style="text;strokeColor=none;fillColor=none;align=left;verticalAlign=top;spacingLeft=4;spacingRight=4;overflow=hidden;rotatable=0;points=[[0,0.5],[1,0.5]];portConstraint=eastwest;" parent="23" vertex="1">
                    <mxGeometry y="78" width="411.87" height="26" as="geometry"/>
                </mxCell>
                <mxCell id="45" value="- delivered_packages: Package [ ] " style="text;strokeColor=none;fillColor=none;align=left;verticalAlign=top;spacingLeft=4;spacingRight=4;overflow=hidden;rotatable=0;points=[[0,0.5],[1,0.5]];portConstraint=eastwest;" parent="23" vertex="1">
                    <mxGeometry y="104" width="411.87" height="26" as="geometry"/>
                </mxCell>
                <mxCell id="164" value="- package_stations: PackageStation [ ]" style="text;strokeColor=none;fillColor=none;align=left;verticalAlign=top;spacingLeft=4;spacingRight=4;overflow=hidden;rotatable=0;points=[[0,0.5],[1,0.5]];portConstraint=eastwest;" parent="23" vertex="1">
                    <mxGeometry y="130" width="411.87" height="26" as="geometry"/>
                </mxCell>
                <mxCell id="179" value="- station_distances_lut: PackageStation [ ]" style="text;strokeColor=none;fillColor=none;align=left;verticalAlign=top;spacingLeft=4;spacingRight=4;overflow=hidden;rotatable=0;points=[[0,0.5],[1,0.5]];portConstraint=eastwest;" parent="23" vertex="1">
                    <mxGeometry y="156" width="411.87" height="26" as="geometry"/>
                </mxCell>
                <mxCell id="25" value="" style="line;strokeWidth=1;fillColor=none;align=left;verticalAlign=middle;spacingTop=-1;spacingLeft=3;spacingRight=3;rotatable=0;labelPosition=right;points=[];portConstraint=eastwest;strokeColor=inherit;" parent="23" vertex="1">
                    <mxGeometry y="182" width="411.87" height="8" as="geometry"/>
                </mxCell>
                <mxCell id="26" value="+ SortingOffice(Drones [],PackageStation [])" style="text;strokeColor=none;fillColor=none;align=left;verticalAlign=top;spacingLeft=4;spacingRight=4;overflow=hidden;rotatable=0;points=[[0,0.5],[1,0.5]];portConstraint=eastwest;" parent="23" vertex="1">
                    <mxGeometry y="190" width="411.87" height="26" as="geometry"/>
                </mxCell>
                <mxCell id="22" value="+ get_distance(package_station_id): float" style="text;strokeColor=none;fillColor=none;align=left;verticalAlign=top;spacingLeft=4;spacingRight=4;overflow=hidden;rotatable=0;points=[[0,0.5],[1,0.5]];portConstraint=eastwest;" parent="23" vertex="1">
                    <mxGeometry y="216" width="411.87" height="26" as="geometry"/>
                </mxCell>
                <mxCell id="163" value="+ get_closest_package_station(package_station_id): float" style="text;strokeColor=none;fillColor=none;align=left;verticalAlign=top;spacingLeft=4;spacingRight=4;overflow=hidden;rotatable=0;points=[[0,0.5],[1,0.5]];portConstraint=eastwest;" parent="23" vertex="1">
                    <mxGeometry y="242" width="411.87" height="26" as="geometry"/>
                </mxCell>
                <mxCell id="165" value="+ add_package(Package): void" style="text;strokeColor=none;fillColor=none;align=left;verticalAlign=top;spacingLeft=4;spacingRight=4;overflow=hidden;rotatable=0;points=[[0,0.5],[1,0.5]];portConstraint=eastwest;" parent="23" vertex="1">
                    <mxGeometry y="268" width="411.87" height="26" as="geometry"/>
                </mxCell>
                <mxCell id="161" value="+ send_package(Package, PackageStation): void    " style="text;strokeColor=none;fillColor=none;align=left;verticalAlign=top;spacingLeft=4;spacingRight=4;overflow=hidden;rotatable=0;points=[[0,0.5],[1,0.5]];portConstraint=eastwest;" parent="23" vertex="1">
                    <mxGeometry y="294" width="411.87" height="26" as="geometry"/>
                </mxCell>
                <mxCell id="166" value="+ remove_not_recived_package(package_id, PackageStation): void" style="text;strokeColor=none;fillColor=none;align=left;verticalAlign=top;spacingLeft=4;spacingRight=4;overflow=hidden;rotatable=0;points=[[0,0.5],[1,0.5]];portConstraint=eastwest;" parent="23" vertex="1">
                    <mxGeometry y="320" width="411.87" height="26" as="geometry"/>
                </mxCell>
                <mxCell id="47" value="&lt;&lt;enumeration&gt;&gt;&#10;PackageStates" style="swimlane;fontStyle=0;childLayout=stackLayout;horizontal=1;startSize=40;fillColor=none;horizontalStack=0;resizeParent=1;resizeParentMax=0;resizeLast=0;collapsible=1;marginBottom=0;" parent="1" vertex="1">
                    <mxGeometry x="730" y="-240" width="140" height="170" as="geometry"/>
                </mxCell>
                <mxCell id="151" value="IN_SORTINGPLANT" style="text;strokeColor=none;fillColor=none;align=left;verticalAlign=top;spacingLeft=4;spacingRight=4;overflow=hidden;rotatable=0;points=[[0,0.5],[1,0.5]];portConstraint=eastwest;" parent="47" vertex="1">
                    <mxGeometry y="40" width="140" height="26" as="geometry"/>
                </mxCell>
                <mxCell id="49" value="IN_TRANSPORT" style="text;strokeColor=none;fillColor=none;align=left;verticalAlign=top;spacingLeft=4;spacingRight=4;overflow=hidden;rotatable=0;points=[[0,0.5],[1,0.5]];portConstraint=eastwest;" parent="47" vertex="1">
                    <mxGeometry y="66" width="140" height="26" as="geometry"/>
                </mxCell>
                <mxCell id="50" value="IN_PACKAGESTATION" style="text;strokeColor=none;fillColor=none;align=left;verticalAlign=top;spacingLeft=4;spacingRight=4;overflow=hidden;rotatable=0;points=[[0,0.5],[1,0.5]];portConstraint=eastwest;" parent="47" vertex="1">
                    <mxGeometry y="92" width="140" height="26" as="geometry"/>
                </mxCell>
                <mxCell id="51" value="COLLECTED" style="text;strokeColor=none;fillColor=none;align=left;verticalAlign=top;spacingLeft=4;spacingRight=4;overflow=hidden;rotatable=0;points=[[0,0.5],[1,0.5]];portConstraint=eastwest;" parent="47" vertex="1">
                    <mxGeometry y="118" width="140" height="26" as="geometry"/>
                </mxCell>
                <mxCell id="52" value="EXPIRED" style="text;strokeColor=none;fillColor=none;align=left;verticalAlign=top;spacingLeft=4;spacingRight=4;overflow=hidden;rotatable=0;points=[[0,0.5],[1,0.5]];portConstraint=eastwest;" parent="47" vertex="1">
                    <mxGeometry y="144" width="140" height="26" as="geometry"/>
                </mxCell>
                <mxCell id="57" value="&lt;&lt;enumeration&gt;&gt;&#10;DroneStates" style="swimlane;fontStyle=0;childLayout=stackLayout;horizontal=1;startSize=42;fillColor=none;horizontalStack=0;resizeParent=1;resizeParentMax=0;resizeLast=0;collapsible=1;marginBottom=0;" parent="1" vertex="1">
                    <mxGeometry x="-310" y="-122" width="140" height="100" as="geometry"/>
                </mxCell>
                <mxCell id="58" value="BUSY" style="text;strokeColor=none;fillColor=none;align=left;verticalAlign=top;spacingLeft=4;spacingRight=4;overflow=hidden;rotatable=0;points=[[0,0.5],[1,0.5]];portConstraint=eastwest;" parent="57" vertex="1">
                    <mxGeometry y="42" width="140" height="26" as="geometry"/>
                </mxCell>
                <mxCell id="59" value="IDLE" style="text;strokeColor=none;fillColor=none;align=left;verticalAlign=top;spacingLeft=4;spacingRight=4;overflow=hidden;rotatable=0;points=[[0,0.5],[1,0.5]];portConstraint=eastwest;" parent="57" vertex="1">
                    <mxGeometry y="68" width="140" height="32" as="geometry"/>
                </mxCell>
                <mxCell id="61" value="&lt;&lt;enumeration&gt;&gt;&#10;LockerStates" style="swimlane;fontStyle=0;childLayout=stackLayout;horizontal=1;startSize=42;fillColor=none;horizontalStack=0;resizeParent=1;resizeParentMax=0;resizeLast=0;collapsible=1;marginBottom=0;" parent="1" vertex="1">
                    <mxGeometry x="500" y="-240" width="140" height="94" as="geometry"/>
                </mxCell>
                <mxCell id="62" value="FREE" style="text;strokeColor=none;fillColor=none;align=left;verticalAlign=top;spacingLeft=4;spacingRight=4;overflow=hidden;rotatable=0;points=[[0,0.5],[1,0.5]];portConstraint=eastwest;" parent="61" vertex="1">
                    <mxGeometry y="42" width="140" height="26" as="geometry"/>
                </mxCell>
                <mxCell id="63" value="OCCUPIED" style="text;strokeColor=none;fillColor=none;align=left;verticalAlign=top;spacingLeft=4;spacingRight=4;overflow=hidden;rotatable=0;points=[[0,0.5],[1,0.5]];portConstraint=eastwest;" parent="61" vertex="1">
                    <mxGeometry y="68" width="140" height="26" as="geometry"/>
                </mxCell>
                <mxCell id="64" value="Use" style="endArrow=open;endSize=12;dashed=1;html=1;exitX=0.5;exitY=0;exitDx=0;exitDy=0;" parent="1" source="2" target="59" edge="1">
                    <mxGeometry width="160" relative="1" as="geometry">
                        <mxPoint x="-30" y="203" as="sourcePoint"/>
                        <mxPoint x="-50" y="-7" as="targetPoint"/>
                        <mxPoint as="offset"/>
                    </mxGeometry>
                </mxCell>
                <mxCell id="65" value="Use" style="endArrow=open;endSize=12;dashed=1;html=1;exitX=0.5;exitY=0;exitDx=0;exitDy=0;entryX=0.488;entryY=1.071;entryDx=0;entryDy=0;entryPerimeter=0;" parent="1" source="10" target="52" edge="1">
                    <mxGeometry width="160" relative="1" as="geometry">
                        <mxPoint x="790" y="-10" as="sourcePoint"/>
                        <mxPoint x="950" y="-10" as="targetPoint"/>
                    </mxGeometry>
                </mxCell>
                <mxCell id="66" value="Use" style="endArrow=open;endSize=12;dashed=1;html=1;exitX=0.5;exitY=0;exitDx=0;exitDy=0;entryX=0.5;entryY=1.173;entryDx=0;entryDy=0;entryPerimeter=0;" parent="1" source="15" target="63" edge="1">
                    <mxGeometry width="160" relative="1" as="geometry">
                        <mxPoint x="560" y="80" as="sourcePoint"/>
                        <mxPoint x="720" y="80" as="targetPoint"/>
                    </mxGeometry>
                </mxCell>
                <mxCell id="82" value="Position" style="swimlane;fontStyle=0;childLayout=stackLayout;horizontal=1;startSize=26;fillColor=none;horizontalStack=0;resizeParent=1;resizeParentMax=0;resizeLast=0;collapsible=1;marginBottom=0;" parent="1" vertex="1">
                    <mxGeometry x="-80" y="118" width="140" height="78" as="geometry"/>
                </mxCell>
                <mxCell id="83" value="+ x: int " style="text;strokeColor=none;fillColor=none;align=left;verticalAlign=top;spacingLeft=4;spacingRight=4;overflow=hidden;rotatable=0;points=[[0,0.5],[1,0.5]];portConstraint=eastwest;" parent="82" vertex="1">
                    <mxGeometry y="26" width="140" height="26" as="geometry"/>
                </mxCell>
                <mxCell id="84" value="+ y: int " style="text;strokeColor=none;fillColor=none;align=left;verticalAlign=top;spacingLeft=4;spacingRight=4;overflow=hidden;rotatable=0;points=[[0,0.5],[1,0.5]];portConstraint=eastwest;" parent="82" vertex="1">
                    <mxGeometry y="52" width="140" height="26" as="geometry"/>
                </mxCell>
                <mxCell id="72" value="" style="endArrow=open;html=1;endSize=12;startArrow=diamondThin;startSize=14;startFill=1;edgeStyle=orthogonalEdgeStyle;align=left;verticalAlign=bottom;entryX=0;entryY=0.086;entryDx=0;entryDy=0;entryPerimeter=0;" parent="1" source="6" target="15" edge="1">
                    <mxGeometry x="-1" y="3" relative="1" as="geometry">
                        <mxPoint x="410" y="190" as="sourcePoint"/>
                        <mxPoint x="490" y="138" as="targetPoint"/>
                        <Array as="points">
                            <mxPoint x="410" y="132"/>
                        </Array>
                    </mxGeometry>
                </mxCell>
                <mxCell id="118" value="" style="endArrow=none;html=1;endSize=12;startArrow=none;startSize=14;startFill=1;edgeStyle=orthogonalEdgeStyle;align=left;verticalAlign=bottom;exitDx=0;exitDy=0;endFill=0;" parent="1" source="117" edge="1">
                    <mxGeometry x="-1" y="3" relative="1" as="geometry">
                        <mxPoint x="240" y="420" as="sourcePoint"/>
                        <mxPoint x="275" y="500" as="targetPoint"/>
                    </mxGeometry>
                </mxCell>
                <mxCell id="119" value="" style="endArrow=none;html=1;endSize=12;startArrow=diamondThin;startSize=14;startFill=1;edgeStyle=orthogonalEdgeStyle;align=left;verticalAlign=bottom;exitX=0.5;exitY=0;exitDx=0;exitDy=0;endFill=0;" parent="1" source="23" target="117" edge="1">
                    <mxGeometry x="-1" y="3" relative="1" as="geometry">
                        <mxPoint x="275" y="470" as="sourcePoint"/>
                        <mxPoint x="275" y="400" as="targetPoint"/>
                    </mxGeometry>
                </mxCell>
                <mxCell id="117" value="" style="shape=waypoint;sketch=0;fillStyle=solid;size=6;pointerEvents=1;points=[];fillColor=none;resizable=0;rotatable=0;perimeter=centerPerimeter;snapToPoint=1;" parent="1" vertex="1">
                    <mxGeometry x="265" y="490" width="20" height="20" as="geometry"/>
                </mxCell>
                <mxCell id="120" value="" style="endArrow=open;html=1;endSize=12;startArrow=none;startSize=14;startFill=0;edgeStyle=orthogonalEdgeStyle;align=left;verticalAlign=bottom;exitX=0.479;exitY=0.321;exitDx=0;exitDy=0;exitPerimeter=0;" parent="1" source="117" target="2" edge="1">
                    <mxGeometry x="-1" y="3" relative="1" as="geometry">
                        <mxPoint x="40" y="390" as="sourcePoint"/>
                        <mxPoint x="200" y="390" as="targetPoint"/>
                        <Array as="points">
                            <mxPoint x="-240" y="500"/>
                        </Array>
                    </mxGeometry>
                </mxCell>
                <mxCell id="121" value="" style="endArrow=open;html=1;endSize=12;startArrow=none;startSize=14;startFill=0;edgeStyle=orthogonalEdgeStyle;align=left;verticalAlign=bottom;exitDx=0;exitDy=0;exitPerimeter=0;" parent="1" source="169" target="10" edge="1">
                    <mxGeometry x="-1" y="3" relative="1" as="geometry">
                        <mxPoint x="290" y="500" as="sourcePoint"/>
                        <mxPoint x="-50" y="269.9999999999998" as="targetPoint"/>
                        <Array as="points"/>
                    </mxGeometry>
                </mxCell>
                <mxCell id="122" value="" style="endArrow=open;html=1;endSize=12;startArrow=none;startSize=14;startFill=0;edgeStyle=orthogonalEdgeStyle;align=left;verticalAlign=bottom;exitX=0.387;exitY=0.519;exitDx=0;exitDy=0;exitPerimeter=0;" parent="1" source="115" target="82" edge="1">
                    <mxGeometry x="-1" y="3" relative="1" as="geometry">
                        <mxPoint x="140" y="250" as="sourcePoint"/>
                        <mxPoint x="-40" y="279.9999999999998" as="targetPoint"/>
                        <Array as="points">
                            <mxPoint x="-10" y="250"/>
                        </Array>
                    </mxGeometry>
                </mxCell>
                <mxCell id="123" value="" style="endArrow=none;html=1;endSize=12;startArrow=diamondThin;startSize=14;startFill=1;edgeStyle=orthogonalEdgeStyle;align=left;verticalAlign=bottom;endFill=0;entryX=0.75;entryY=0.55;entryDx=0;entryDy=0;entryPerimeter=0;" parent="1" source="6" target="115" edge="1">
                    <mxGeometry x="-1" y="3" relative="1" as="geometry">
                        <mxPoint x="330" y="70" as="sourcePoint"/>
                        <mxPoint x="340" y="50" as="targetPoint"/>
                        <Array as="points">
                            <mxPoint x="100" y="250"/>
                            <mxPoint x="50" y="250"/>
                        </Array>
                    </mxGeometry>
                </mxCell>
                <mxCell id="124" value="" style="endArrow=none;html=1;endSize=12;startArrow=none;startSize=14;startFill=0;edgeStyle=orthogonalEdgeStyle;align=left;verticalAlign=bottom;" parent="1" target="115" edge="1">
                    <mxGeometry x="-1" y="3" relative="1" as="geometry">
                        <mxPoint x="290" y="500" as="sourcePoint"/>
                        <mxPoint x="130" y="18.000000000000227" as="targetPoint"/>
                        <Array as="points"/>
                    </mxGeometry>
                </mxCell>
                <mxCell id="115" value="" style="shape=waypoint;sketch=0;fillStyle=solid;size=6;pointerEvents=1;points=[];fillColor=none;resizable=0;rotatable=0;perimeter=centerPerimeter;snapToPoint=1;" parent="1" vertex="1">
                    <mxGeometry x="40" y="241" width="20" height="20" as="geometry"/>
                </mxCell>
                <mxCell id="129" value="" style="endArrow=none;html=1;endSize=12;startArrow=none;startSize=14;startFill=0;edgeStyle=orthogonalEdgeStyle;align=left;verticalAlign=bottom;exitX=0.45;exitY=0.683;exitDx=0;exitDy=0;exitPerimeter=0;" parent="1" source="117" edge="1">
                    <mxGeometry x="-1" y="3" relative="1" as="geometry">
                        <mxPoint x="275" y="500" as="sourcePoint"/>
                        <mxPoint x="290" y="500" as="targetPoint"/>
                        <Array as="points">
                            <mxPoint x="790" y="500"/>
                        </Array>
                    </mxGeometry>
                </mxCell>
                <mxCell id="156" value="" style="endArrow=none;html=1;endSize=12;startArrow=none;startSize=14;startFill=0;edgeStyle=orthogonalEdgeStyle;align=left;verticalAlign=bottom;" parent="1" source="117" edge="1">
                    <mxGeometry x="-1" y="3" relative="1" as="geometry">
                        <mxPoint x="275" y="500" as="sourcePoint"/>
                        <mxPoint x="290" y="500" as="targetPoint"/>
                        <Array as="points">
                            <mxPoint x="50" y="500"/>
                        </Array>
                    </mxGeometry>
                </mxCell>
                <mxCell id="168" value="" style="endArrow=none;html=1;endSize=12;startArrow=diamondThin;startSize=14;startFill=0;edgeStyle=orthogonalEdgeStyle;align=left;verticalAlign=bottom;sourcePerimeterSpacing=0;targetPerimeterSpacing=0;endFill=0;" parent="1" source="6" target="169" edge="1">
                    <mxGeometry x="-0.875" y="10" relative="1" as="geometry">
                        <mxPoint x="360" y="460" as="sourcePoint"/>
                        <mxPoint x="520" y="460" as="targetPoint"/>
                        <Array as="points">
                            <mxPoint x="265" y="460"/>
                        </Array>
                        <mxPoint as="offset"/>
                    </mxGeometry>
                </mxCell>
                <mxCell id="170" value="" style="endArrow=none;html=1;endSize=12;startArrow=none;startSize=14;startFill=0;edgeStyle=orthogonalEdgeStyle;align=left;verticalAlign=bottom;exitDx=0;exitDy=0;exitPerimeter=0;" parent="1" target="169" edge="1">
                    <mxGeometry x="-1" y="3" relative="1" as="geometry">
                        <mxPoint x="290" y="500" as="sourcePoint"/>
                        <mxPoint x="800.0256410256411" y="386" as="targetPoint"/>
                        <Array as="points"/>
                    </mxGeometry>
                </mxCell>
                <mxCell id="169" value="" style="shape=waypoint;sketch=0;fillStyle=solid;size=6;pointerEvents=1;points=[];fillColor=none;resizable=0;rotatable=0;perimeter=centerPerimeter;snapToPoint=1;" parent="1" vertex="1">
                    <mxGeometry x="790" y="450" width="20" height="20" as="geometry"/>
                </mxCell>
                <mxCell id="173" value="" style="endArrow=open;html=1;endSize=12;startArrow=none;startSize=14;startFill=0;edgeStyle=orthogonalEdgeStyle;align=left;verticalAlign=bottom;" parent="1" source="174" target="15" edge="1">
                    <mxGeometry x="-1" y="3" relative="1" as="geometry">
                        <mxPoint x="530" y="460" as="sourcePoint"/>
                        <mxPoint x="530" y="416" as="targetPoint"/>
                        <Array as="points">
                            <mxPoint x="570" y="460"/>
                        </Array>
                    </mxGeometry>
                </mxCell>
                <mxCell id="174" value="" style="shape=waypoint;sketch=0;fillStyle=solid;size=6;pointerEvents=1;points=[];fillColor=none;resizable=0;rotatable=0;perimeter=centerPerimeter;snapToPoint=1;" parent="1" vertex="1">
                    <mxGeometry x="560" y="450" width="20" height="20" as="geometry"/>
                </mxCell>
                <mxCell id="175" value="&lt;&lt;enumeration&gt;&gt;&#10;Events" style="swimlane;fontStyle=0;childLayout=stackLayout;horizontal=1;startSize=42;fillColor=none;horizontalStack=0;resizeParent=1;resizeParentMax=0;resizeLast=0;collapsible=1;marginBottom=0;" parent="1" vertex="1">
                    <mxGeometry x="380" y="-390" width="140" height="68" as="geometry"/>
                </mxCell>
                <mxCell id="178" value="&lt;&lt;enumeration&gt;&gt;&#10;Actions" style="swimlane;fontStyle=0;childLayout=stackLayout;horizontal=1;startSize=42;fillColor=none;horizontalStack=0;resizeParent=1;resizeParentMax=0;resizeLast=0;collapsible=1;marginBottom=0;" parent="1" vertex="1">
                    <mxGeometry x="205" y="-390" width="140" height="68" as="geometry"/>
                </mxCell>
                <mxCell id="223" value="&lt;&lt;abstract&gt;&gt;&#10;ObjectBase" style="swimlane;fontStyle=0;childLayout=stackLayout;horizontal=1;startSize=42;fillColor=none;horizontalStack=0;resizeParent=1;resizeParentMax=0;resizeLast=0;collapsible=1;marginBottom=0;" parent="1" vertex="1">
                    <mxGeometry x="40" y="-268" width="140" height="134" as="geometry"/>
                </mxCell>
                <mxCell id="224" value="+ id: uint" style="text;strokeColor=none;fillColor=none;align=left;verticalAlign=top;spacingLeft=4;spacingRight=4;overflow=hidden;rotatable=0;points=[[0,0.5],[1,0.5]];portConstraint=eastwest;" parent="223" vertex="1">
                    <mxGeometry y="42" width="140" height="18" as="geometry"/>
                </mxCell>
                <mxCell id="226" value="" style="line;strokeWidth=1;fillColor=none;align=left;verticalAlign=middle;spacingTop=-1;spacingLeft=3;spacingRight=3;rotatable=0;labelPosition=right;points=[];portConstraint=eastwest;strokeColor=inherit;" parent="223" vertex="1">
                    <mxGeometry y="60" width="140" height="26" as="geometry"/>
                </mxCell>
                <mxCell id="225" value="+ ObjectBase(id) &#10;" style="text;strokeColor=none;fillColor=none;align=left;verticalAlign=top;spacingLeft=4;spacingRight=4;overflow=hidden;rotatable=0;points=[[0,0.5],[1,0.5]];portConstraint=eastwest;" parent="223" vertex="1">
                    <mxGeometry y="86" width="140" height="24" as="geometry"/>
                </mxCell>
                <mxCell id="227" value="+ get_id(): uint &#10;" style="text;strokeColor=none;fillColor=none;align=left;verticalAlign=top;spacingLeft=4;spacingRight=4;overflow=hidden;rotatable=0;points=[[0,0.5],[1,0.5]];portConstraint=eastwest;" parent="223" vertex="1">
                    <mxGeometry y="110" width="140" height="24" as="geometry"/>
                </mxCell>
                <mxCell id="229" value="" style="endArrow=block;endSize=16;endFill=0;html=1;exitDx=0;exitDy=0;startArrow=none;" parent="1" source="230" target="223" edge="1">
                    <mxGeometry x="0.0898" y="18" width="160" relative="1" as="geometry">
                        <mxPoint x="-160" y="10" as="sourcePoint"/>
                        <mxPoint y="10" as="targetPoint"/>
                        <Array as="points"/>
                        <mxPoint as="offset"/>
                    </mxGeometry>
                </mxCell>
                <mxCell id="231" value="" style="endArrow=none;endSize=16;endFill=0;html=1;exitX=0.5;exitY=0;exitDx=0;exitDy=0;" parent="1" source="2" target="230" edge="1">
                    <mxGeometry x="0.0898" y="18" width="160" relative="1" as="geometry">
                        <mxPoint x="-240" y="126" as="sourcePoint"/>
                        <mxPoint x="110" y="-134" as="targetPoint"/>
                        <Array as="points">
                            <mxPoint x="-140" y="-30"/>
                            <mxPoint x="110" y="-30"/>
                        </Array>
                        <mxPoint as="offset"/>
                    </mxGeometry>
                </mxCell>
                <mxCell id="230" value="" style="shape=waypoint;sketch=0;fillStyle=solid;size=6;pointerEvents=1;points=[];fillColor=none;resizable=0;rotatable=0;perimeter=centerPerimeter;snapToPoint=1;" parent="1" vertex="1">
                    <mxGeometry x="100" y="-42" width="20" height="20" as="geometry"/>
                </mxCell>
                <mxCell id="238" value="" style="edgeStyle=none;html=1;endArrow=none;endFill=0;startArrow=none;" parent="1" target="237" edge="1">
                    <mxGeometry relative="1" as="geometry">
                        <mxPoint x="265" y="-32" as="sourcePoint"/>
                        <mxPoint x="110" y="-32" as="targetPoint"/>
                        <Array as="points"/>
                    </mxGeometry>
                </mxCell>
                <mxCell id="237" value="" style="shape=waypoint;sketch=0;fillStyle=solid;size=6;pointerEvents=1;points=[];fillColor=none;resizable=0;rotatable=0;perimeter=centerPerimeter;snapToPoint=1;" parent="1" vertex="1">
                    <mxGeometry x="255" y="-40" width="20" height="20" as="geometry"/>
                </mxCell>
                <mxCell id="241" value="" style="edgeStyle=none;html=1;exitX=0.5;exitY=0;exitDx=0;exitDy=0;endArrow=none;endFill=0;entryDx=0;entryDy=0;entryPerimeter=0;" parent="1" source="15" target="240" edge="1">
                    <mxGeometry relative="1" as="geometry">
                        <mxPoint x="265" y="-30" as="targetPoint"/>
                        <mxPoint x="570" y="39.99999999999977" as="sourcePoint"/>
                        <Array as="points">
                            <mxPoint x="520" y="-30"/>
                        </Array>
                    </mxGeometry>
                </mxCell>
                <mxCell id="240" value="" style="shape=waypoint;sketch=0;fillStyle=solid;size=6;pointerEvents=1;points=[];fillColor=none;resizable=0;rotatable=0;perimeter=centerPerimeter;snapToPoint=1;" parent="1" vertex="1">
                    <mxGeometry x="510" y="-40" width="20" height="20" as="geometry"/>
                </mxCell>
                <mxCell id="243" value="SystemController" style="swimlane;fontStyle=0;align=center;verticalAlign=top;childLayout=stackLayout;horizontal=1;startSize=26;horizontalStack=0;resizeParent=1;resizeParentMax=0;resizeLast=0;collapsible=1;marginBottom=0;" vertex="1" parent="1">
                    <mxGeometry x="149.99" y="1210" width="250" height="104" as="geometry"/>
                </mxCell>
                <mxCell id="244" value="- sorting_office: SoritngOffice " style="text;strokeColor=none;fillColor=none;align=left;verticalAlign=top;spacingLeft=4;spacingRight=4;overflow=hidden;rotatable=0;points=[[0,0.5],[1,0.5]];portConstraint=eastwest;fontStyle=0" vertex="1" parent="243">
                    <mxGeometry y="26" width="250" height="26" as="geometry"/>
                </mxCell>
                <mxCell id="246" value="" style="line;strokeWidth=1;fillColor=none;align=left;verticalAlign=middle;spacingTop=-1;spacingLeft=3;spacingRight=3;rotatable=0;labelPosition=right;points=[];portConstraint=eastwest;strokeColor=inherit;" vertex="1" parent="243">
                    <mxGeometry y="52" width="250" height="26" as="geometry"/>
                </mxCell>
                <mxCell id="251" value="+ SystemController(SoritngOffice)" style="text;strokeColor=none;fillColor=none;align=left;verticalAlign=top;spacingLeft=4;spacingRight=4;overflow=hidden;rotatable=0;points=[[0,0.5],[1,0.5]];portConstraint=eastwest;" vertex="1" parent="243">
                    <mxGeometry y="78" width="250" height="26" as="geometry"/>
                </mxCell>
                <mxCell id="252" value="&lt;&lt;third_party&gt;&gt;&#10;SimPy" style="swimlane;fontStyle=0;childLayout=stackLayout;horizontal=1;startSize=42;fillColor=none;horizontalStack=0;resizeParent=1;resizeParentMax=0;resizeLast=0;collapsible=1;marginBottom=0;" vertex="1" parent="1">
                    <mxGeometry x="600" y="1228" width="140" height="68" as="geometry"/>
                </mxCell>
                <mxCell id="253" value="&lt;br&gt;" style="endArrow=block;endSize=16;endFill=0;html=1;" edge="1" parent="1" source="243" target="252">
                    <mxGeometry width="160" relative="1" as="geometry">
                        <mxPoint x="470" y="1260" as="sourcePoint"/>
                        <mxPoint x="630" y="1260" as="targetPoint"/>
                    </mxGeometry>
                </mxCell>
                <mxCell id="254" value="1" style="endArrow=open;html=1;endSize=12;startArrow=diamondThin;startSize=14;startFill=0;edgeStyle=orthogonalEdgeStyle;align=left;verticalAlign=bottom;" edge="1" parent="1" source="23" target="243">
                    <mxGeometry x="-1" y="3" relative="1" as="geometry">
                        <mxPoint x="790" y="730" as="sourcePoint"/>
                        <mxPoint x="950" y="730" as="targetPoint"/>
                    </mxGeometry>
                </mxCell>
            </root>
        </mxGraphModel>
    </diagram>
</mxfile>